Coordinates
version=1
nRows=24
nColumns=24
inDegrees=yes

Units are S.I. units (second, meters, Newtons, ...)
Angles are in degrees.

endheader
time	pelvis_tilt	pelvis_list	pelvis_rotation	pelvis_tx	pelvis_ty	pelvis_tz	hip_flexion_r	hip_adduction_r	hip_rotation_r	knee_angle_r	ankle_angle_r	subtalar_angle_r	mtp_angle_r	hip_flexion_l	hip_adduction_l	hip_rotation_l	knee_angle_l	ankle_angle_l	subtalar_angle_l	mtp_angle_l	lumbar_extension	lumbar_bending	lumbar_rotation
      1.92000000	      4.88869559	      1.71976626	     -0.25884208	      1.09521129	      0.89052833	     -0.01410840	     -7.30420475	     -0.95520595	     -1.50906330	    -57.11551185	     -5.34930486	     -8.78128891	     49.57961055	     17.03083810	      5.94219002	     -1.04837948	    -24.37011153	     11.71854804	     -5.32632373	     29.02238545	    -15.80210639	     -4.87854694	     -1.81954251
      1.92500000	      4.98149207	      2.01474663	     -0.18619182	      1.10279417	      0.89148075	     -0.01439242	     -6.24702359	     -1.22499369	     -1.54896485	    -58.84880917	     -4.96252445	     -9.72818971	     47.77905646	     16.38795908	      6.25363565	     -1.15927832	    -24.39382497	     12.37530921	     -4.81631823	     28.37495130	    -15.94418332	     -5.19597497	     -2.01683830
      1.93000000	      5.10947241	      2.28965455	     -0.20643754	      1.11031200	      0.89261298	     -0.01458360	     -5.20482170	     -1.49061684	     -1.51090695	    -60.48652432	     -4.51102066	    -10.76933669	     47.18516382	     15.63444905	      6.53536568	     -1.29881449	    -24.26312794	     12.85091728	     -4.61946504	     28.23467578	    -16.12403591	     -5.50500901	     -2.05876651
      1.93500000	      5.27772611	      2.50147622	     -0.12530040	      1.11788548	      0.89387943	     -0.01483591	     -4.25093601	     -1.67803670	     -1.57308748	    -61.99923917	     -3.55850726	    -11.25006986	     44.26236148	     14.79156415	      6.76050464	     -1.33844195	    -24.06827708	     13.51691122	     -4.02261600	     27.12937945	    -16.35002703	     -5.72283998	     -2.25114323
      1.94000000	      5.40072705	      2.68711675	     -0.14424551	      1.12534773	      0.89517387	     -0.01499086	     -3.20260913	     -1.85715779	     -1.55360234	    -63.42707402	     -2.81437719	    -12.03410843	     43.90480616	     13.96561320	      6.94761188	     -1.44229965	    -23.78027378	     13.94556444	     -3.79776115	     27.02775653	    -16.52052839	     -5.92808484	     -2.28712918
      1.94500000	      5.59701472	      2.79671011	     -0.10253837	      1.13285538	      0.89666356	     -0.01513310	     -2.28127383	     -1.93968727	     -1.59093662	    -64.70403598	     -1.66874443	    -12.39789022	     41.66451298	     13.01931402	      7.05155955	     -1.49631540	    -23.43519516	     14.50494648	     -3.27005159	     26.04753211	    -16.77613540	     -6.03850300	     -2.43113720
      1.95000000	      5.73460728	      2.89813814	     -0.10259616	      1.14032184	      0.89812038	     -0.01526104	     -1.27454594	     -2.03655484	     -1.61529966	    -65.88770286	     -0.68871419	    -12.94201983	     41.57857375	     12.10499023	      7.15703165	     -1.52028290	    -23.00881668	     14.83599314	     -3.06732906	     26.00866191	    -16.95963324	     -6.14359921	     -2.51300602
      1.95500000	      5.99435123	      2.92274751	     -0.23611127	      1.14776773	      0.89981333	     -0.01513718	     -0.39403596	     -2.03651132	     -1.49579988	    -66.95079037	      0.45836572	    -13.23617862	     40.81376485	     11.01730853	      7.13633273	     -1.73356790	    -22.50671149	     15.29033584	     -2.64956521	     25.62477029	    -17.26765197	     -6.19864087	     -2.40488520
      1.96000000	      6.15170256	      2.93787357	     -0.18777669	      1.15519778	      0.90138492	     -0.01528149	      0.56280981	     -2.04800810	     -1.60291951	    -67.90959700	      1.74097551	    -13.41112900	     38.94530762	     10.03438601	      7.16284218	     -1.64784577	    -21.99306824	     15.70171662	     -2.32233244	     24.47378140	    -17.47592824	     -6.19352770	     -2.52834340
      1.96500000	      6.31278841	      2.93933925	     -0.21007860	      1.16264701	      0.90298343	     -0.01531380	      1.52190637	     -2.05244947	     -1.64794757	    -68.75622499	      2.86215239	    -13.66107202	     38.94990730	      9.01103491	      7.16150820	     -1.64166309	    -21.39767909	     15.93889621	     -2.13902161	     24.42711724	    -17.67687275	     -6.19018754	     -2.58216773
      1.97000000	      6.52110191	      2.90254436	     -0.27902287	      1.17011058	      0.90468296	     -0.01526697	      2.41567533	     -2.01784194	     -1.65821264	    -69.47674907	      4.02193355	    -13.77629512	     38.84750929	      7.90446200	      7.11387452	     -1.67214404	    -20.73903731	     16.16699474	     -1.94796971	     24.29626722	    -17.92015045	     -6.15492472	     -2.56715775
      1.97500000	      6.74908211	      2.84445254	     -0.33213401	      1.17753869	      0.90640099	     -0.01523463	      3.27380306	     -1.96871026	     -1.70372445	    -70.08729829	      5.17297972	    -13.82911843	     38.65863046	      6.75424598	      7.05347680	     -1.64960432	    -20.02872320	     16.35047601	     -1.81720152	     24.11571140	    -18.18726182	     -6.09024431	     -2.57037224
      1.98000000	      7.01144887	      2.72885782	     -0.39112374	      1.18499331	      0.90815965	     -0.01516071	      4.07101686	     -1.85324253	     -1.76271988	    -70.58085334	      6.39268062	    -13.79348057	     37.02209575	      5.55304459	      6.92812424	     -1.60718448	    -19.31137219	     16.68953396	     -1.52716489	     22.99177945	    -18.49042233	     -5.96554493	     -2.50805542
      1.98500000	      7.14554526	      2.65507698	     -0.44028029	      1.19241744	      0.90970664	     -0.01513863	      5.01218208	     -1.80721072	     -1.83619256	    -71.00182568	      7.46870323	    -13.71198265	     37.06403351	      4.47902501	      6.86378115	     -1.53228247	    -18.53546301	     16.72991940	     -1.54346279	     22.87293708	    -18.64869995	     -5.87955136	     -2.51264729
      1.99000000	      7.36048778	      2.55448485	     -0.50296442	      1.19984385	      0.91134034	     -0.01507710	      5.83680247	     -1.72940302	     -1.90497986	    -71.29387266	      8.48458016	    -13.62950319	     37.01758750	      3.29193044	      6.77156030	     -1.43194051	    -17.71157183	     16.77921328	     -1.53375654	     22.71795671	    -18.89577378	     -5.76879094	     -2.49182961
      1.99500000	      7.56493827	      2.44578367	     -0.56893833	      1.20729743	      0.91291843	     -0.01500217	      6.65177547	     -1.64877745	     -1.98636129	    -71.48298167	      9.43576976	    -13.55626084	     36.93136705	      2.10010500	      6.67368329	     -1.33703413	    -16.85267034	     16.80125421	     -1.58544614	     22.55396106	    -19.12383090	     -5.64880524	     -2.50308963
      2.00000000	      7.82083926	      2.29135527	     -0.61037005	      1.21479836	      0.91454669	     -0.01492194	      7.36419789	     -1.52297626	     -2.11814655	    -71.53702472	     10.36740103	    -13.43835138	     35.91522974	      0.83769577	      6.51701105	     -1.26221234	    -15.98281768	     16.92244173	     -1.43690198	     21.83767939	    -19.40741544	     -5.47611311	     -2.45136125
      2.00500000	      7.96675627	      2.20235583	     -0.65857719	      1.22224649	      0.91591225	     -0.01489919	      8.20914538	     -1.48722281	     -2.23189948	    -71.55509209	     11.18777598	    -13.24602689	     35.92535074	     -0.30644612	      6.45097048	     -1.11080410	    -15.08077698	     16.82088895	     -1.60527961	     21.69703082	    -19.56732953	     -5.36995672	     -2.46123509
      2.01000000	      8.15496092	      2.08834711	     -0.71058187	      1.22969786	      0.91729010	     -0.01484695	      8.97239249	     -1.41935585	     -2.34757681	    -71.44902017	     11.93779078	    -13.10156536	     35.88549555	     -1.51075065	      6.35406433	     -0.98282049	    -14.15082244	     16.73910662	     -1.72539439	     21.57216099	    -19.77605178	     -5.23780163	     -2.47654681
      2.01500000	      8.34663524	      1.97260664	     -0.74416560	      1.23717761	      0.91860298	     -0.01482033	      9.69986016	     -1.35667133	     -2.48641488	    -71.24497495	     12.59227302	    -12.97181459	     35.81206631	     -2.72922078	      6.25362624	     -0.85465454	    -13.19893717	     16.63067557	     -1.83313411	     21.44034154	    -19.98562327	     -5.09833763	     -2.49790587
      2.02000000	      8.55257432	      1.85360537	     -0.76435586	      1.24465469	      0.91985703	     -0.01477176	     10.38163364	     -1.29294299	     -2.64829487	    -70.94226560	     13.18556456	    -12.82110541	     35.68398611	     -3.96443969	      6.14487658	     -0.72515415	    -12.24436073	     16.50442455	     -1.92752062	     21.31245845	    -20.20440840	     -4.96001917	     -2.50125803
      2.02500000	      8.72992181	      1.74211427	     -0.77741764	      1.25212066	      0.92098061	     -0.01476170	     11.06927159	     -1.23846302	     -2.80521714	    -70.55557934	     13.72667339	    -12.68276498	     35.56635046	     -5.16025349	      6.04603709	     -0.60097150	    -11.30479603	     16.36438277	     -2.04633325	     21.19204866	    -20.40105284	     -4.82008180	     -2.55712616
      2.03000000	      8.90155868	      1.63755465	     -0.77254950	      1.25960803	      0.92201500	     -0.01476486	     11.73280590	     -1.19582970	     -2.98019033	    -70.07943916	     14.20777596	    -12.53465191	     35.43104916	     -6.35423001	      5.94991455	     -0.48270601	    -10.35054966	     16.20459048	     -2.13982423	     21.09832310	    -20.58455182	     -4.68485115	     -2.61916002
      2.03500000	      9.06452428	      1.53338411	     -0.76109426	      1.26708898	      0.92294676	     -0.01475327	     12.37403401	     -1.15090270	     -3.15754406	    -69.51395117	     14.63440919	    -12.39452193	     35.29245454	     -7.53433209	      5.84899227	     -0.39456519	     -9.40774211	     16.03714819	     -2.20725404	     21.03023015	    -20.75636898	     -4.55182453	     -2.68072808
